<?xml version="1.0" standalone="no"?>
<!DOCTYPE svg PUBLIC "-//W3C//DTD SVG 20010904//EN"
 "http://www.w3.org/TR/2001/REC-SVG-20010904/DTD/svg10.dtd">
<svg version="1.0" xmlns="http://www.w3.org/2000/svg"
 width="600.000000pt" height="600.000000pt" viewBox="0 0 600.000000 600.000000"
 preserveAspectRatio="xMidYMid meet">

<g transform="translate(0.000000,600.000000) scale(0.100000,-0.100000)"
fill="#000000" stroke="none">
<path d="M2200 5618 c-73 -21 -123 -79 -136 -156 -13 -85 -3 -98 386 -487
l360 -360 0 -580 0 -580 -280 280 -280 280 0 449 c0 439 0 451 -21 494 -53
110 -204 137 -292 54 -60 -56 -61 -64 -65 -351 l-4 -263 -231 230 c-158 157
-242 233 -262 238 -154 41 -282 -87 -241 -241 5 -20 81 -104 238 -262 l230
-231 -263 -4 c-293 -4 -298 -5 -357 -72 -76 -87 -44 -234 60 -285 43 -20 56
-21 494 -21 l449 0 280 -280 280 -280 -563 0 -562 0 -367 351 c-203 193 -381
358 -398 367 -17 9 -54 16 -86 16 -105 1 -179 -77 -179 -186 1 -30 8 -67 18
-85 9 -17 118 -127 241 -245 l224 -213 -185 -5 c-181 -5 -185 -6 -226 -33
-125 -82 -106 -271 33 -333 11 -4 102 -11 203 -14 l183 -5 -228 -208 c-125
-115 -239 -225 -253 -245 -20 -29 -25 -48 -25 -98 0 -53 4 -69 30 -105 17 -23
48 -52 70 -63 48 -25 127 -27 170 -3 17 9 201 176 410 372 l380 355 555 0 555
0 -280 -280 -279 -279 -461 -3 -461 -3 -42 -28 c-95 -62 -111 -199 -34 -280
56 -60 64 -61 351 -65 l263 -4 -230 -231 c-157 -158 -233 -242 -238 -262 -41
-154 87 -282 241 -241 20 5 104 81 262 238 l231 231 4 -264 c4 -293 5 -298 72
-357 87 -76 234 -44 285 60 20 43 21 56 21 494 l0 449 280 280 280 280 0 -580
0 -580 -360 -360 c-389 -389 -399 -402 -386 -487 18 -114 116 -180 230 -156
49 10 61 21 283 240 l231 230 4 -174 c3 -171 4 -175 31 -216 51 -78 161 -106
247 -62 81 42 100 97 100 299 l0 155 233 -230 c211 -211 236 -232 279 -243
121 -29 239 64 238 189 -1 61 -41 108 -394 460 l-356 355 0 580 0 580 280
-280 280 -280 0 -449 c0 -438 1 -451 21 -494 33 -66 86 -97 170 -97 60 0 71 3
106 31 77 62 78 67 81 363 l4 263 231 -230 c158 -157 242 -233 262 -238 154
-41 282 87 241 241 -5 20 -81 104 -238 262 l-230 231 263 4 c296 3 301 4 363
81 28 35 31 46 31 106 0 84 -31 137 -97 170 -43 20 -56 21 -494 21 l-449 0
-280 280 -280 280 571 0 572 0 363 -356 c200 -195 377 -363 394 -371 38 -20
122 -20 160 0 39 20 81 65 94 100 18 47 13 118 -10 157 -12 19 -121 133 -243
252 l-221 217 161 0 c208 1 262 19 304 101 44 86 16 196 -62 247 -40 27 -47
28 -212 33 l-171 5 211 215 c116 118 219 229 228 247 22 44 21 125 -4 173 -37
73 -127 112 -210 91 -41 -11 -78 -45 -400 -372 l-355 -359 -585 0 -585 0 280
280 280 280 449 0 c438 0 451 1 494 21 104 51 136 198 60 285 -59 67 -64 68
-357 72 l-264 4 227 227 c199 199 228 233 241 274 44 145 -88 273 -240 233
-20 -5 -104 -81 -262 -238 l-231 -230 -4 263 c-4 287 -5 295 -65 351 -81 77
-218 61 -280 -34 l-28 -42 -3 -461 -3 -461 -279 -279 -280 -280 0 580 0 580
356 355 c353 352 393 399 394 460 1 125 -117 218 -238 189 -43 -11 -68 -32
-279 -243 l-233 -230 0 155 c0 202 -19 257 -100 299 -86 44 -196 16 -247 -62
-27 -41 -28 -45 -31 -216 l-4 -174 -231 229 c-210 209 -236 231 -279 242 -53
13 -51 13 -98 -1z"/>
</g>
</svg>
